<?xml version="1.0" encoding="UTF-8"?>
<svg width="201px" height="69px" viewBox="0 0 201 69" version="1.1" xmlns="http://www.w3.org/2000/svg" xmlns:xlink="http://www.w3.org/1999/xlink">
    <title>MorselLogo</title>
    <g id="Page-1" stroke="none" stroke-width="1" fill="none" fill-rule="evenodd">
        <g id="MorselLogo" transform="translate(0.776000, 0.000000)" fill="#B88AD1" fill-rule="nonzero">
            <g id="Title" transform="translate(0.000000, 56.608000)">
                <path d="M0,10.288 C0,10.96 0.528,11.488 1.2,11.488 C1.872,11.488 2.416,10.96 2.416,10.288 L2.416,4.72 L4.544,8 C4.8,8.384 5.12,8.624 5.568,8.624 C6.016,8.624 6.336,8.384 6.592,8 L8.752,4.672 L8.752,10.256 C8.752,10.928 9.296,11.488 9.968,11.488 C10.656,11.488 11.2,10.944 11.2,10.256 L11.2,1.36 C11.2,0.672 10.656,0.128 9.968,0.128 L9.696,0.128 C9.2,0.128 8.848,0.336 8.592,0.752 L5.6,5.616 L2.624,0.768 C2.4,0.4 2.032,0.128 1.504,0.128 L1.232,0.128 C0.544,0.128 0,0.672 0,1.36 L0,10.288 Z" id="Path"></path>
                <path d="M20.2168889,11.584 C23.6728889,11.584 26.1848889,8.976 26.1848889,5.792 L26.1848889,5.76 C26.1848889,2.576 23.7048889,0 20.2488889,0 C16.7928889,0 14.2808889,2.608 14.2808889,5.792 L14.2808889,5.824 C14.2808889,9.008 16.7608889,11.584 20.2168889,11.584 Z M20.2488889,9.312 C18.2648889,9.312 16.8568889,7.712 16.8568889,5.792 L16.8568889,5.76 C16.8568889,3.84 18.2328889,2.272 20.2168889,2.272 C22.2008889,2.272 23.6088889,3.872 23.6088889,5.792 L23.6088889,5.824 C23.6088889,7.744 22.2328889,9.312 20.2488889,9.312 Z" id="Shape"></path>
                <path d="M29.2657778,10.256 C29.2657778,10.944 29.8097778,11.488 30.4977778,11.488 C31.1857778,11.488 31.7297778,10.944 31.7297778,10.256 L31.7297778,7.808 L33.6977778,7.808 L36.0977778,10.848 C36.3857778,11.216 36.7537778,11.488 37.3137778,11.488 C37.9057778,11.488 38.4817778,11.04 38.4817778,10.352 C38.4817778,9.968 38.3217778,9.712 38.0817778,9.408 L36.3697778,7.328 C37.7297778,6.768 38.6097778,5.68 38.6097778,3.92 L38.6097778,3.888 C38.6097778,2.832 38.2737778,1.952 37.6497778,1.328 C36.9137778,0.592 35.8097778,0.192 34.3857778,0.192 L30.4977778,0.192 C29.8097778,0.192 29.2657778,0.736 29.2657778,1.424 L29.2657778,10.256 Z M31.7297778,5.632 L31.7297778,2.416 L34.1777778,2.416 C35.3777778,2.416 36.1137778,2.96 36.1137778,4.016 L36.1137778,4.048 C36.1137778,4.992 35.4257778,5.632 34.2257778,5.632 L31.7297778,5.632 Z" id="Shape"></path>
                <path d="M45.7066667,11.552 C48.1226667,11.552 49.8186667,10.304 49.8186667,8.08 L49.8186667,8.048 C49.8186667,6.096 48.5386667,5.28 46.2666667,4.688 C44.3306667,4.192 43.8506667,3.952 43.8506667,3.216 L43.8506667,3.184 C43.8506667,2.64 44.3466667,2.208 45.2906667,2.208 C46.0586667,2.208 46.8266667,2.48 47.6426667,2.96 C47.8346667,3.072 48.0266667,3.136 48.2666667,3.136 C48.9066667,3.136 49.4186667,2.64 49.4186667,2 C49.4186667,1.52 49.1466667,1.184 48.8746667,1.024 C47.8666667,0.384 46.6826667,0.032 45.3226667,0.032 C43.0346667,0.032 41.4026667,1.376 41.4026667,3.408 L41.4026667,3.44 C41.4026667,5.664 42.8586667,6.288 45.1146667,6.864 C46.9866667,7.344 47.3706667,7.664 47.3706667,8.288 L47.3706667,8.32 C47.3706667,8.976 46.7626667,9.376 45.7546667,9.376 C44.6666667,9.376 43.7386667,8.992 42.8906667,8.368 C42.7306667,8.256 42.5066667,8.144 42.1866667,8.144 C41.5466667,8.144 41.0346667,8.64 41.0346667,9.28 C41.0346667,9.664 41.2266667,10.016 41.4986667,10.208 C42.7466667,11.104 44.2346667,11.552 45.7066667,11.552 Z" id="Path"></path>
                <path d="M54.0835556,11.392 L60.3715556,11.392 C60.9795556,11.392 61.4755556,10.912 61.4755556,10.304 C61.4755556,9.696 60.9795556,9.2 60.3715556,9.2 L55.2995556,9.2 L55.2995556,6.848 L59.5715556,6.848 C60.1795556,6.848 60.6755556,6.368 60.6755556,5.76 C60.6755556,5.152 60.1795556,4.656 59.5715556,4.656 L55.2995556,4.656 L55.2995556,2.384 L60.2915556,2.384 C60.8995556,2.384 61.3955556,1.904 61.3955556,1.296 C61.3955556,0.688 60.8995556,0.192 60.2915556,0.192 L54.0835556,0.192 C53.3955556,0.192 52.8515556,0.736 52.8515556,1.424 L52.8515556,10.16 C52.8515556,10.848 53.3955556,11.392 54.0835556,11.392 Z" id="Path"></path>
                <path d="M64.4604444,10.16 C64.4604444,10.848 65.0044444,11.392 65.6924444,11.392 L71.4844444,11.392 C72.1084444,11.392 72.6044444,10.896 72.6044444,10.272 C72.6044444,9.648 72.1084444,9.152 71.4844444,9.152 L66.9244444,9.152 L66.9244444,1.328 C66.9244444,0.64 66.3804444,0.096 65.6924444,0.096 C65.0044444,0.096 64.4604444,0.64 64.4604444,1.328 L64.4604444,10.16 Z" id="Path"></path>
                <path d="M81.0542222,10.256 C81.0542222,10.944 81.5982222,11.488 82.2862222,11.488 C82.9742222,11.488 83.5182222,10.944 83.5182222,10.256 L83.5182222,1.328 C83.5182222,0.64 82.9742222,0.096 82.2862222,0.096 C81.5982222,0.096 81.0542222,0.64 81.0542222,1.328 L81.0542222,10.256 Z" id="Path"></path>
                <path d="M87.2071111,10.272 C87.2071111,10.944 87.7511111,11.488 88.4231111,11.488 C89.0951111,11.488 89.6391111,10.944 89.6391111,10.272 L89.6391111,4.272 L94.5671111,10.736 C94.9031111,11.168 95.2551111,11.456 95.8471111,11.456 L95.9271111,11.456 C96.6151111,11.456 97.1591111,10.912 97.1591111,10.224 L97.1591111,1.312 C97.1591111,0.64 96.6151111,0.096 95.9431111,0.096 C95.2711111,0.096 94.7271111,0.64 94.7271111,1.312 L94.7271111,7.088 L89.9751111,0.848 C89.6391111,0.416 89.2871111,0.128 88.6951111,0.128 L88.4391111,0.128 C87.7511111,0.128 87.2071111,0.672 87.2071111,1.36 L87.2071111,10.272 Z" id="Path"></path>
                <path d="M103.344,10.256 C103.344,10.944 103.888,11.488 104.576,11.488 C105.264,11.488 105.808,10.944 105.808,10.256 L105.808,2.464 L108.176,2.464 C108.8,2.464 109.312,1.952 109.312,1.328 C109.312,0.704 108.8,0.192 108.176,0.192 L100.976,0.192 C100.352,0.192 99.84,0.704 99.84,1.328 C99.84,1.952 100.352,2.464 100.976,2.464 L103.344,2.464 L103.344,10.256 Z" id="Path"></path>
                <path d="M113.224889,11.392 L119.512889,11.392 C120.120889,11.392 120.616889,10.912 120.616889,10.304 C120.616889,9.696 120.120889,9.2 119.512889,9.2 L114.440889,9.2 L114.440889,6.848 L118.712889,6.848 C119.320889,6.848 119.816889,6.368 119.816889,5.76 C119.816889,5.152 119.320889,4.656 118.712889,4.656 L114.440889,4.656 L114.440889,2.384 L119.432889,2.384 C120.040889,2.384 120.536889,1.904 120.536889,1.296 C120.536889,0.688 120.040889,0.192 119.432889,0.192 L113.224889,0.192 C112.536889,0.192 111.992889,0.736 111.992889,1.424 L111.992889,10.16 C111.992889,10.848 112.536889,11.392 113.224889,11.392 Z" id="Path"></path>
                <path d="M123.601778,10.256 C123.601778,10.944 124.145778,11.488 124.833778,11.488 C125.521778,11.488 126.065778,10.944 126.065778,10.256 L126.065778,7.808 L128.033778,7.808 L130.433778,10.848 C130.721778,11.216 131.089778,11.488 131.649778,11.488 C132.241778,11.488 132.817778,11.04 132.817778,10.352 C132.817778,9.968 132.657778,9.712 132.417778,9.408 L130.705778,7.328 C132.065778,6.768 132.945778,5.68 132.945778,3.92 L132.945778,3.888 C132.945778,2.832 132.609778,1.952 131.985778,1.328 C131.249778,0.592 130.145778,0.192 128.721778,0.192 L124.833778,0.192 C124.145778,0.192 123.601778,0.736 123.601778,1.424 L123.601778,10.256 Z M126.065778,5.632 L126.065778,2.416 L128.513778,2.416 C129.713778,2.416 130.449778,2.96 130.449778,4.016 L130.449778,4.048 C130.449778,4.992 129.761778,5.632 128.561778,5.632 L126.065778,5.632 Z" id="Shape"></path>
                <path d="M135.290667,10.336 C135.290667,10.976 135.786667,11.488 136.426667,11.488 C136.938667,11.488 137.354667,11.2 137.562667,10.72 L138.346667,8.88 L143.274667,8.88 L144.026667,10.64 C144.250667,11.152 144.634667,11.488 145.210667,11.488 C145.866667,11.488 146.378667,10.96 146.378667,10.304 C146.378667,10.144 146.330667,9.984 146.250667,9.808 L142.346667,0.992 C142.074667,0.384 141.594667,0.016 140.922667,0.016 L140.778667,0.016 C140.106667,0.016 139.610667,0.384 139.338667,0.992 L135.434667,9.808 C135.354667,9.984 135.290667,10.16 135.290667,10.336 Z M139.258667,6.704 L140.810667,3.008 L142.362667,6.704 L139.258667,6.704 Z" id="Shape"></path>
                <path d="M154.051556,11.584 C155.843556,11.584 157.027556,11.056 158.035556,10.176 C158.259556,9.984 158.451556,9.68 158.451556,9.296 C158.451556,8.672 157.923556,8.16 157.299556,8.16 C157.011556,8.16 156.755556,8.272 156.563556,8.432 C155.859556,8.992 155.171556,9.312 154.131556,9.312 C152.211556,9.312 150.883556,7.712 150.883556,5.792 L150.883556,5.76 C150.883556,3.84 152.243556,2.272 154.131556,2.272 C155.011556,2.272 155.731556,2.56 156.419556,3.072 C156.595556,3.184 156.819556,3.312 157.155556,3.312 C157.827556,3.312 158.371556,2.784 158.371556,2.112 C158.371556,1.68 158.147556,1.328 157.891556,1.136 C156.963556,0.448 155.827556,0 154.147556,0 C150.707556,0 148.307556,2.608 148.307556,5.792 L148.307556,5.824 C148.307556,9.04 150.755556,11.584 154.051556,11.584 Z" id="Path"></path>
                <path d="M164.108444,10.256 C164.108444,10.944 164.652444,11.488 165.340444,11.488 C166.028444,11.488 166.572444,10.944 166.572444,10.256 L166.572444,2.464 L168.940444,2.464 C169.564444,2.464 170.076444,1.952 170.076444,1.328 C170.076444,0.704 169.564444,0.192 168.940444,0.192 L161.740444,0.192 C161.116444,0.192 160.604444,0.704 160.604444,1.328 C160.604444,1.952 161.116444,2.464 161.740444,2.464 L164.108444,2.464 L164.108444,10.256 Z" id="Path"></path>
                <path d="M172.869333,10.256 C172.869333,10.944 173.413333,11.488 174.101333,11.488 C174.789333,11.488 175.333333,10.944 175.333333,10.256 L175.333333,1.328 C175.333333,0.64 174.789333,0.096 174.101333,0.096 C173.413333,0.096 172.869333,0.64 172.869333,1.328 L172.869333,10.256 Z" id="Path"></path>
                <path d="M183.406222,11.568 L183.566222,11.568 C184.238222,11.568 184.702222,11.2 184.958222,10.592 L188.622222,1.824 C188.686222,1.68 188.750222,1.472 188.750222,1.28 C188.750222,0.608 188.206222,0.096 187.534222,0.096 C186.942222,0.096 186.510222,0.48 186.350222,0.88 L183.518222,8.208 L180.718222,0.96 C180.526222,0.464 180.110222,0.096 179.470222,0.096 C178.782222,0.096 178.238222,0.624 178.238222,1.312 C178.238222,1.52 178.302222,1.712 178.382222,1.904 L182.014222,10.592 C182.270222,11.2 182.734222,11.568 183.406222,11.568 Z" id="Path"></path>
                <path d="M192.759111,11.392 L199.047111,11.392 C199.655111,11.392 200.151111,10.912 200.151111,10.304 C200.151111,9.696 199.655111,9.2 199.047111,9.2 L193.975111,9.2 L193.975111,6.848 L198.247111,6.848 C198.855111,6.848 199.351111,6.368 199.351111,5.76 C199.351111,5.152 198.855111,4.656 198.247111,4.656 L193.975111,4.656 L193.975111,2.384 L198.967111,2.384 C199.575111,2.384 200.071111,1.904 200.071111,1.296 C200.071111,0.688 199.575111,0.192 198.967111,0.192 L192.759111,0.192 C192.071111,0.192 191.527111,0.736 191.527111,1.424 L191.527111,10.16 C191.527111,10.848 192.071111,11.392 192.759111,11.392 Z" id="Path"></path>
            </g>
            <path d="M84.0432932,13.2001893 C84.3659498,13.2001893 84.6687818,13.3558722 84.8565412,13.618272 L91.0372531,22.2560152 C91.1587008,22.4257422 91.224,22.629214 91.224,22.8379166 L91.2241508,32 C91.2241508,32.5128358 90.8381413,32.9355133 90.3408036,32.9932863 L90.2241667,33 L82.224,33 C81.6717153,33 81.224,32.5522847 81.224,32 L81.224,14.2001893 C81.224,13.6479045 81.6717153,13.2001893 82.224,13.2001893 L84.0432932,13.2001893 Z M120.224005,13.2001893 C120.776285,13.2001893 121.224005,13.6479045 121.224005,14.2001893 L121.224005,32 C121.224005,32.5522847 120.776285,33 120.224005,33 L112.224167,33 C111.671888,33 111.224175,32.5522785 111.224151,32 L111.224005,22.8369611 C111.224005,22.6282309 111.289314,22.4247316 111.410786,22.2549881 L117.591431,13.6182322 C117.779194,13.3558556 118.082012,13.2001893 118.404651,13.2001893 L120.224005,13.2001893 Z M90.7271329,0 C91.0402186,0 91.3352335,0.146632392 91.5242729,0.39620545 L100.42718,12.149977 C100.760647,12.5902252 101.387866,12.6767889 101.828115,12.3433224 C101.901116,12.2880274 101.966176,12.2229665 102.02147,12.1499642 L110.924061,0.396218239 C111.1131,0.14663765 111.408119,0 111.72121,0 L119.282824,0 C119.835108,0 120.282824,0.44771525 120.282824,1 C120.282824,1.20813492 120.21788,1.41108318 120.097047,1.58055152 L102.038224,26.9080515 C101.717594,27.3577348 101.093132,27.4623533 100.643448,27.1417235 C100.553138,27.0773309 100.474169,26.9983622 100.409776,26.9080515 L82.350953,1.58055152 C82.0303232,1.1308683 82.1349417,0.506406241 82.5846249,0.185776488 C82.7540933,0.0649434449 82.9570416,0 83.1651765,0 L90.7271329,0 Z" id="Shape"></path>
        </g>
    </g>
</svg>