<?xml version="1.0" encoding="utf-8"?>
<!-- Generator: Adobe Illustrator 25.3.1, SVG Export Plug-In . SVG Version: 6.00 Build 0)  -->
<svg version="1.1" id="Artwork" xmlns="http://www.w3.org/2000/svg" xmlns:xlink="http://www.w3.org/1999/xlink" x="0px" y="0px"
	 width="133.378px" height="27.789px" viewBox="0 0 133.378 27.789" style="enable-background:new 0 0 133.378 27.789;"
	 xml:space="preserve">
<style type="text/css">
	.st0{fill-rule:evenodd;clip-rule:evenodd;fill:url(#Gradient_Fill_1_1_);}
	.st1{fill:#FFFFFF;}
</style>
<g>
	<g>
		
			<linearGradient id="Gradient_Fill_1_1_" gradientUnits="userSpaceOnUse" x1="12.5816" y1="-1316.119" x2="12.5816" y2="-1290.9557" gradientTransform="matrix(1 0 0 -1 0 -1290.9557)">
			<stop  offset="0" style="stop-color:#FF2D50"/>
			<stop  offset="1" style="stop-color:#FF7355"/>
		</linearGradient>
		<path id="Gradient_Fill_1_8_" class="st0" d="M25.163,7.871c0-0.301,0-0.601-0.002-0.902C25.16,6.717,25.157,6.464,25.15,6.21
			c-0.015-0.551-0.047-1.107-0.145-1.653c-0.094-0.547-0.268-1.076-0.518-1.572c-0.507-0.995-1.315-1.803-2.31-2.31
			c-0.495-0.25-1.024-0.424-1.571-0.518c-0.545-0.098-1.102-0.131-1.653-0.145c-0.253-0.007-0.506-0.01-0.759-0.011
			C17.893,0,17.592,0,17.292,0H7.871C7.571,0,7.27,0,6.97,0.002C6.717,0.003,6.464,0.006,6.21,0.013
			C5.659,0.028,5.103,0.06,4.557,0.158C4.011,0.252,3.481,0.426,2.986,0.676c-0.995,0.507-1.804,1.315-2.31,2.31
			c-0.25,0.495-0.424,1.025-0.518,1.572C0.06,5.103,0.028,5.659,0.013,6.21C0.006,6.464,0.003,6.717,0.002,6.97
			C0,7.27,0,7.571,0,7.871v9.421c0,0.301,0,0.601,0.002,0.902c0.002,0.253,0.004,0.506,0.011,0.759
			c0.015,0.551,0.047,1.107,0.145,1.653c0.094,0.547,0.268,1.076,0.518,1.572c0.507,0.995,1.315,1.803,2.31,2.31
			c0.495,0.25,1.024,0.424,1.571,0.518c0.545,0.098,1.102,0.13,1.653,0.145c0.253,0.007,0.506,0.01,0.759,0.011
			c0.301,0.002,0.601,0.002,0.902,0.002h9.421c0.301,0,0.601,0,0.902-0.002c0.253-0.001,0.506-0.004,0.759-0.011
			c0.551-0.015,1.108-0.047,1.653-0.145c0.546-0.093,1.076-0.268,1.571-0.518c0.995-0.507,1.803-1.315,2.31-2.31
			c0.25-0.495,0.424-1.025,0.518-1.572c0.098-0.545,0.13-1.101,0.145-1.653c0.007-0.253,0.01-0.506,0.011-0.759
			c0.002-0.301,0.002-0.601,0.002-0.902L25.163,7.871L25.163,7.871z"/>
		<path class="st1" d="M19.616,17.251c-0.485,0.231-3.473,1.573-4.445,2.015c-0.972,0.442-1.632,0.618-2.585,0.618
			c-0.953,0-1.679-0.213-2.302-0.492c-0.517-0.231-4.254-1.913-4.736-2.14c-0.607-0.286-0.826-0.475-0.956-0.651
			c-0.081-0.109-0.133-0.256-0.133-0.388v-0.647c0,0,0-0.386,0.379-0.211c0,0,4.824,2.179,5.441,2.456
			c0.649,0.291,1.408,0.493,2.3,0.493c0.892,0,1.553-0.161,2.307-0.493c0.754-0.332,5.441-2.456,5.441-2.456
			c0.379-0.174,0.379,0.211,0.379,0.211v0.647l0,0c0,0.132-0.048,0.275-0.133,0.386C20.411,16.81,20.226,16.961,19.616,17.251z
			 M20.706,13.593c0,0.524-0.684,0.847-1.089,1.039l-4.731,2.146c-0.754,0.332-1.415,0.493-2.307,0.493
			c-0.892,0-1.651-0.202-2.3-0.493l-4.731-2.146c-0.405-0.192-1.089-0.515-1.089-1.039c0-0.526,0.696-0.856,1.089-1.04l4.731-2.136
			c0.441-0.198,0.937-0.348,1.487-0.428v3.735c0,0.356,0.366,0.592,0.818,0.592s0.818-0.232,0.818-0.592V9.98
			c0.517,0.072,0.981,0.216,1.485,0.438l4.731,2.136C20.009,12.737,20.706,13.067,20.706,13.593z M8.451,13.113
			c-0.461-0.266-1.206-0.266-1.663,0c-0.458,0.266-0.454,0.697,0.007,0.963c0.461,0.266,1.203,0.266,1.661,0
			C8.913,13.81,8.911,13.379,8.451,13.113z M10.313,7.124c0-1.253,1.016-2.269,2.269-2.269s2.269,1.016,2.269,2.269
			s-1.016,2.269-2.269,2.269S10.313,8.377,10.313,7.124z"/>
	</g>
	<g>
		<g>
			<g>
				<path d="M30.873,7.531V1.476h3.781v0.81h-2.841v1.917h2.602v0.793h-2.602v2.535H30.873z"/>
				<path d="M35.785,1.594c0-0.315,0.256-0.571,0.571-0.571c0.314,0,0.57,0.256,0.57,0.571c0,0.311-0.256,0.566-0.57,0.566
					C36.041,2.16,35.785,1.904,35.785,1.594z M35.907,2.974h0.897v4.557h-0.897V2.974z"/>
				<path d="M38.253,2.974h0.869v0.722h0.066c0.223-0.503,0.676-0.81,1.364-0.81c1.02,0,1.582,0.608,1.582,1.695v2.95h-0.902V4.795
					c0-0.755-0.319-1.125-0.986-1.125s-1.091,0.453-1.091,1.188v2.673h-0.902V2.974z"/>
				<path d="M43.299,5.248c0-1.435,0.742-2.354,1.896-2.354c0.625,0,1.153,0.302,1.401,0.801h0.067V1.186h0.901v6.345h-0.864V6.809
					h-0.071c-0.272,0.5-0.806,0.797-1.435,0.797C44.033,7.607,43.299,6.692,43.299,5.248z M44.23,5.253
					c0,0.99,0.458,1.582,1.222,1.582c0.76,0,1.229-0.6,1.229-1.582c0-0.974-0.475-1.586-1.229-1.586
					C44.692,3.666,44.23,4.266,44.23,5.253z"/>
				<path d="M51.409,1.594c0-0.315,0.256-0.571,0.571-0.571c0.314,0,0.57,0.256,0.57,0.571c0,0.311-0.256,0.566-0.57,0.566
					C51.665,2.16,51.409,1.904,51.409,1.594z M51.531,2.974h0.897v4.557h-0.897V2.974z"/>
				<path d="M55.098,1.825v1.162h0.99v0.722h-0.99v2.404c0,0.491,0.197,0.705,0.646,0.705c0.139,0,0.219-0.008,0.345-0.021v0.718
					c-0.147,0.025-0.314,0.046-0.491,0.046c-1.003,0-1.401-0.353-1.401-1.229V3.708h-0.727V2.987h0.727V1.825H55.098z"/>
				<path d="M59.518,5.253c0-1.469,0.822-2.367,2.157-2.367c1.33,0,2.152,0.894,2.152,2.367c0,1.473-0.818,2.366-2.152,2.366
					C60.337,7.619,59.518,6.725,59.518,5.253z M62.901,5.253c0-1.016-0.445-1.603-1.226-1.603c-0.785,0-1.226,0.587-1.226,1.603
					c0,1.015,0.44,1.599,1.226,1.599C62.456,6.851,62.901,6.264,62.901,5.253z"/>
				<path d="M65.034,2.974h0.869v0.722h0.067c0.222-0.503,0.675-0.81,1.363-0.81c1.02,0,1.582,0.608,1.582,1.695v2.95h-0.902V4.795
					c0-0.755-0.318-1.125-0.986-1.125c-0.667,0-1.091,0.453-1.091,1.188v2.673h-0.902V2.974z"/>
			</g>
		</g>
	</g>
	<g id="XMLID_14_">
		<g>
			<path d="M34.805,11.359h2.082l4.51,12.418h-2.021l-1.137-3.356h-4.785l-1.145,3.356h-2.021L34.805,11.359z M33.971,18.872h3.742
				l-1.85-5.456h-0.035L33.971,18.872z"/>
			<path d="M42.516,14.724h1.857v1.558h0.045c0.541-1.075,1.539-1.729,2.83-1.729c2.307,0,3.787,1.808,3.787,4.699v0.008
				c0,2.884-1.488,4.699-3.762,4.699c-1.281,0-2.322-0.654-2.855-1.704h-0.045v4.535h-1.857V14.724z M49.143,19.259v-0.008
				c0-1.928-0.922-3.107-2.377-3.107c-1.41,0-2.4,1.223-2.4,3.107v0.008c0,1.877,0.998,3.099,2.4,3.099
				C48.229,22.358,49.143,21.17,49.143,19.259z"/>
			<path d="M52.481,14.724h1.857v1.558h0.045c0.541-1.075,1.539-1.729,2.83-1.729c2.307,0,3.787,1.808,3.787,4.699v0.008
				c0,2.884-1.488,4.699-3.762,4.699c-1.281,0-2.322-0.654-2.855-1.704h-0.045v4.535h-1.857V14.724z M59.108,19.259v-0.008
				c0-1.928-0.922-3.107-2.377-3.107c-1.41,0-2.4,1.223-2.4,3.107v0.008c0,1.877,0.998,3.099,2.4,3.099
				C58.194,22.358,59.108,21.17,59.108,19.259z"/>
			<path d="M62.514,11.359h1.859v12.418h-1.859V11.359z"/>
			<path d="M65.883,19.285v-0.009c0-2.831,1.635-4.725,4.174-4.725s4.096,1.824,4.096,4.544v0.628h-6.412
				c0.035,1.713,0.973,2.711,2.453,2.711c1.102,0,1.834-0.567,2.066-1.248l0.025-0.068h1.764l-0.018,0.095
				c-0.291,1.438-1.686,2.745-3.881,2.745C67.493,23.958,65.883,22.143,65.883,19.285z M67.768,18.408h4.543
				c-0.154-1.566-1.033-2.332-2.246-2.332C68.86,16.075,67.93,16.893,67.768,18.408z"/>
			<path d="M82.958,11.359h2.082l4.51,12.418h-2.023l-1.135-3.356h-4.785l-1.145,3.356h-2.023L82.958,11.359z M82.122,18.872h3.744
				l-1.85-5.456h-0.035L82.122,18.872z"/>
			<path d="M90.686,14.724h1.857v1.55h0.045c0.291-1.059,1.049-1.722,2.082-1.722c0.266,0,0.498,0.043,0.645,0.069v1.729
				c-0.146-0.061-0.473-0.104-0.834-0.104c-1.197,0-1.938,0.783-1.938,2.135v5.396h-1.857V14.724z"/>
			<path d="M95.682,19.242v-0.009c0-2.866,1.686-4.682,4.268-4.682c2.332,0,3.744,1.497,3.898,3.201l0.01,0.061h-1.773l-0.018-0.069
				c-0.197-0.886-0.887-1.635-2.1-1.635c-1.445,0-2.385,1.205-2.385,3.142v0.008c0,1.979,0.957,3.142,2.393,3.142
				c1.145,0,1.877-0.663,2.1-1.644l0.01-0.069h1.789l-0.008,0.061c-0.197,1.815-1.713,3.21-3.891,3.21
				C97.335,23.958,95.682,22.143,95.682,19.242z"/>
			<path d="M104.942,21.204v-0.018c0-1.574,1.223-2.538,3.365-2.667l2.461-0.146v-0.68c0-0.999-0.645-1.602-1.799-1.602
				c-1.074,0-1.738,0.508-1.893,1.231l-0.018,0.077h-1.756l0.01-0.095c0.129-1.558,1.48-2.754,3.709-2.754
				c2.211,0,3.613,1.171,3.613,2.986v6.239h-1.867v-1.429h-0.033c-0.525,0.973-1.576,1.592-2.771,1.592
				C106.155,23.941,104.942,22.831,104.942,21.204z M108.471,22.452c1.307,0,2.297-0.887,2.297-2.065v-0.706l-2.211,0.138
				c-1.119,0.069-1.738,0.56-1.738,1.325v0.018C106.819,21.953,107.473,22.452,108.471,22.452z"/>
			<path d="M114.108,19.251v-0.009c0-2.883,1.496-4.69,3.77-4.69c1.281,0,2.314,0.646,2.855,1.713h0.035v-4.906h1.867v12.418h-1.867
				v-1.532h-0.035c-0.541,1.059-1.539,1.713-2.84,1.713C115.589,23.958,114.108,22.134,114.108,19.251z M120.776,19.251v-0.009
				c0-1.876-0.998-3.099-2.391-3.099c-1.465,0-2.377,1.188-2.377,3.099v0.009c0,1.928,0.904,3.106,2.377,3.106
				C119.788,22.358,120.776,21.136,120.776,19.251z"/>
			<path d="M124.106,19.285v-0.009c0-2.831,1.635-4.725,4.174-4.725s4.098,1.824,4.098,4.544v0.628h-6.412
				c0.035,1.713,0.973,2.711,2.453,2.711c1.102,0,1.832-0.567,2.064-1.248l0.025-0.068h1.766l-0.018,0.095
				c-0.293,1.438-1.688,2.745-3.881,2.745C125.715,23.958,124.106,22.143,124.106,19.285z M125.991,18.408h4.545
				c-0.156-1.566-1.033-2.332-2.246-2.332C127.085,16.075,126.155,16.893,125.991,18.408z"/>
		</g>
	</g>
</g>
</svg>
